# xmcd
#
# Track frame offsets:
#	150
#	14375
#	29400
#	46050
#	58657
#	73075
#	89075
#	107250
#	124500
#	141275
#
# Disc length: 2115 seconds
#
# Revision: 2
# Processed by: cddbd v1.5.2PL0 Copyright (c) Steve Scherf et al.
# Submitted via: EZCDAudioConverter 6.0.5.1
#
DISCID=8508410a
DTITLE=Lee Greenwood - God Bless The USA
DYEAR=1995
DGENRE=Country
TTITLE0=I.O.U.
TTITLE1=Look What We Made
TTITLE2=Two Heart Serenade
TTITLE3=Even Love Can't Save Us Now
TTITLE4=God Bless The USA
TTITLE5=Heartbreak Radio
TTITLE6=Didn't We
TTITLE7=From Now On
TTITLE8=I Still Believe
TTITLE9=You Can't Fall In Love When You're Crying
EXTD=
EXTT0=
EXTT1=
EXTT2=
EXTT3=
EXTT4=
EXTT5=
EXTT6=
EXTT7=
EXTT8=
EXTT9=
PLAYORDER=
